<svg xmlns="http://www.w3.org/2000/svg">
<defs>
<font id="GoboldThinLight" horiz-adv-x="975" >
  <font-face 
    font-family="Gobold Thin Light"
    font-weight="400"
    font-stretch="normal"
    units-per-em="2048"
    panose-1="2 0 5 0 0 0 0 0 0 0"
    ascent="1638"
    descent="-410"
    x-height="1726"
    cap-height="1965"
    bbox="-283 -349 2233 2312"
    underline-thickness="150"
    underline-position="-292"
    unicode-range="U+001D-2265"
  />
<missing-glyph horiz-adv-x="1996" 
d="M1145 1760q-156 -40 -255 -149q-33 -37 -89 -121q-62 -94 -89 -129q-83 -102 -134 -144q-85 -68 -179 -68q-75 0 -128 38q-59 43 -71 119q-2 19 -2 38q0 67 33 125q45 80 127 94q21 4 38 4q28 0 50 -9q43 -18 44 -70q-12 13 -28 13q-14 0 -25 -10q-13 -13 -13 -27
q0 -36 38 -36h2q38 0 59 42q10 23 10 46q0 21 -9 44q-18 46 -59 68q-46 23 -111 23q-16 0 -32 -1q-138 -11 -222 -114v224h1045zM100 1109q81 -83 217 -83q18 0 39 2q111 9 262 159q41 42 115 124q66 73 92 97q69 63 139 63q38 0 77 -17q113 -52 229 -52q76 0 154 23
q153 45 286 168q-17 -206 -151 -382q-26 -33 -285 -300h-69q-51 0 -86 40l-109 -110h199q-243 -269 -285 -478q-12 -58 -12 -109q0 -83 30 -147q48 -103 171 -142h-247v878l46 25v43h-812v198zM397 841q97 0 137 -40q42 -41 42 -137v-699h-476v876h297zM648 843h46v-878h-46
v878zM1466 -35q259 59 430 210v-210h-430zM1896 194q-164 -92 -309 -110q-30 -3 -58 -3q-103 0 -161 49q-57 47 -57 132q0 32 8 70q34 151 197 361q78 99 112 148h193v-60h75v-587zM1675 911q127 208 127 448q0 54 -6 110q-20 166 -23 165q8 64 123 99v-822h-221zM868 1277
q-93 0 -155 -53q-54 -48 -66 -119q-3 -17 -3 -34q0 -46 26 -80q32 -43 93 -43q10 0 21 1q74 8 96 77q6 18 6 34q0 45 -44 78q-38 26 -38 59q0 6 3 13q8 39 61 52v15z" />
    <glyph glyph-name=".notdef" horiz-adv-x="1996" 
d="M1145 1760q-156 -40 -255 -149q-33 -37 -89 -121q-62 -94 -89 -129q-83 -102 -134 -144q-85 -68 -179 -68q-75 0 -128 38q-59 43 -71 119q-2 19 -2 38q0 67 33 125q45 80 127 94q21 4 38 4q28 0 50 -9q43 -18 44 -70q-12 13 -28 13q-14 0 -25 -10q-13 -13 -13 -27
q0 -36 38 -36h2q38 0 59 42q10 23 10 46q0 21 -9 44q-18 46 -59 68q-46 23 -111 23q-16 0 -32 -1q-138 -11 -222 -114v224h1045zM100 1109q81 -83 217 -83q18 0 39 2q111 9 262 159q41 42 115 124q66 73 92 97q69 63 139 63q38 0 77 -17q113 -52 229 -52q76 0 154 23
q153 45 286 168q-17 -206 -151 -382q-26 -33 -285 -300h-69q-51 0 -86 40l-109 -110h199q-243 -269 -285 -478q-12 -58 -12 -109q0 -83 30 -147q48 -103 171 -142h-247v878l46 25v43h-812v198zM397 841q97 0 137 -40q42 -41 42 -137v-699h-476v876h297zM648 843h46v-878h-46
v878zM1466 -35q259 59 430 210v-210h-430zM1896 194q-164 -92 -309 -110q-30 -3 -58 -3q-103 0 -161 49q-57 47 -57 132q0 32 8 70q34 151 197 361q78 99 112 148h193v-60h75v-587zM1675 911q127 208 127 448q0 54 -6 110q-20 166 -23 165q8 64 123 99v-822h-221zM868 1277
q-93 0 -155 -53q-54 -48 -66 -119q-3 -17 -3 -34q0 -46 26 -80q32 -43 93 -43q10 0 21 1q74 8 96 77q6 18 6 34q0 45 -44 78q-38 26 -38 59q0 6 3 13q8 39 61 52v15z" />
    <glyph glyph-name=".null" horiz-adv-x="0" 
 />
    <glyph glyph-name=".null" horiz-adv-x="0" 
 />
    <glyph glyph-name="nonmarkingreturn" horiz-adv-x="508" 
 />
    <glyph glyph-name="space" unicode=" " horiz-adv-x="403" 
 />
    <glyph glyph-name="space" unicode="&#xa0;" horiz-adv-x="403" 
 />
    <glyph glyph-name="exclam" unicode="!" horiz-adv-x="480" 
d="M360 1965l-23 -1454h-195l-22 1454h240zM120 235h240v-238h-240v238z" />
    <glyph glyph-name="quotedbl" unicode="&#x22;" horiz-adv-x="824" 
d="M501 1930h203l-30 -586h-142zM120 1930h203l-31 -586h-141z" />
    <glyph glyph-name="numbersign" unicode="#" horiz-adv-x="1313" 
d="M286 825l75 376h-236v57h248l141 708h143l-140 -708h365l140 708h145l-140 -708h206v-57h-219l-74 -376h248v-57h-260l-153 -771h-144l153 771h-365l-153 -771h-145l153 771h-194v57h206zM505 1201l-75 -376h366l75 376h-366z" />
    <glyph glyph-name="dollar" unicode="$" horiz-adv-x="995" 
d="M120 1649q0 334 306 382v179h142v-179q307 -48 307 -382v-227h-196v227q0 192 -181 193h-2q-181 0 -181 -193v-189q0 -165 302 -380q258 -185 258 -438v-261q0 -334 -307 -382v-246h-142v246q-306 49 -306 382v226h195v-226q0 -193 182 -193t182 193v236q0 176 -301 392
q-258 185 -258 445v195z" />
    <glyph glyph-name="percent" unicode="%" horiz-adv-x="1585" 
d="M525 1082q0 -203 -199 -203q-201 0 -201 203v745q0 203 201 203q199 0 199 -203v-745zM1460 199q0 -203 -201 -203h-2q-197 0 -197 203v745q0 203 199 203q201 0 201 -203v-745zM1389 944q0 134 -129 134h-2q-126 0 -126 -134v-745q0 -135 127 -135q130 0 130 135v745z
M1185 1965l-724 -1970h-75l725 1970h74zM453 1827q0 135 -127 135h-3q-127 0 -127 -135v-745q0 -133 130 -133q127 0 127 133v745z" />
    <glyph glyph-name="ampersand" unicode="&#x26;" horiz-adv-x="1136" 
d="M392 202q35 -16 102 -16q16 0 31 1q155 6 155 193v538h-184q-37 -1 -67 -13q-114 -44 -114 -179v-346q0 -146 77 -178zM680 1108v142h195v-142h191v-190h-191v-538q0 -368 -314 -383q-34 -1 -68 -1q-61 0 -106 5q-267 33 -267 379v346q0 172 225 288q-225 116 -225 288
v312q0 357 287 382q43 3 89 3q39 0 79 -2q300 -21 300 -383v-37h-195v37q0 171 -117 191q-31 4 -63 4q-27 0 -57 -3q-128 -15 -128 -192v-312q0 -134 114 -181q30 -11 66 -13h185z" />
    <glyph glyph-name="quotesingle" unicode="'" horiz-adv-x="443" 
d="M120 1930h203l-31 -586h-141z" />
    <glyph glyph-name="parenleft" unicode="(" horiz-adv-x="462" 
d="M432 -264q-312 5 -312 384v1724q0 378 312 383v-142q-117 -3 -117 -192v-1823q0 -188 117 -191v-143z" />
    <glyph glyph-name="parenright" unicode=")" horiz-adv-x="462" 
d="M30 -121q117 3 117 191v1823q0 189 -117 192v142q312 -5 312 -383v-1724q0 -379 -312 -384v143z" />
    <glyph glyph-name="asterisk" unicode="*" horiz-adv-x="952" 
d="M374 1338q-23 -41 -49 -41q-24 0 -63 27q-48 33 -48 60q0 21 30 53q38 38 230 182q-75 -237 -100 -281zM734 1455q35 -32 28 -58q-5 -23 -40 -54q-44 -39 -70 -33q-20 5 -45 41q-28 46 -123 267q213 -129 250 -163zM173 1621q-46 8 -55 32q-3 9 -3 22q0 19 7 47
q14 56 39 65q20 8 61 -9q48 -23 250 -154q-249 -11 -299 -3zM408 1918q-3 47 18 61q19 13 62 13h6q58 -1 73 -23q12 -18 4 -61q-10 -53 -90 -279q-69 239 -73 289zM494 1624q202 131 250 153q41 17 60 10q26 -9 40 -66q7 -28 7 -47q0 -12 -3 -21q-9 -24 -56 -32
q-50 -8 -298 3z" />
    <glyph glyph-name="plus" unicode="+" horiz-adv-x="989" 
d="M424 911h-304v141h304v303h142v-303h303v-141h-303v-303h-142v303z" />
    <glyph glyph-name="comma" unicode="," horiz-adv-x="506" 
d="M120 292h266v-244l-100 -342h-93l62 346h-135v240z" />
    <glyph glyph-name="hyphen" unicode="-" horiz-adv-x="721" 
d="M50 887v141h621v-141h-621z" />
    <glyph glyph-name="hyphen" unicode="&#xad;" horiz-adv-x="721" 
d="M50 887v141h621v-141h-621z" />
    <glyph glyph-name="period" unicode="." horiz-adv-x="480" 
d="M120 258h240v-239h-240v239z" />
    <glyph glyph-name="slash" unicode="/" horiz-adv-x="657" 
d="M597 1966l-393 -1969h-144l393 1969h144z" />
    <glyph glyph-name="zero" unicode="0" horiz-adv-x="995" 
d="M875 347q0 -383 -378 -383q-377 0 -377 383v1268q0 384 377 384q378 0 378 -384v-1268zM680 1615q0 192 -182 192h-2q-181 0 -181 -192v-1268q0 -192 182 -192q183 0 183 192v1268z" />
    <glyph glyph-name="one" unicode="1" horiz-adv-x="1015" 
d="M605 1965v-1778h280v-190h-755v190h281v1588h-281v190h475z" />
    <glyph glyph-name="two" unicode="2" horiz-adv-x="1015" 
d="M130 388q0 254 257 439q302 214 303 380v407q0 193 -181 193h-2q-182 0 -182 -193v-225h-195v225q0 385 377 385q378 0 378 -385v-414q0 -259 -258 -445q-302 -215 -302 -392v-177h560v-191h-755v393z" />
    <glyph glyph-name="three" unicode="3" horiz-adv-x="1015" 
d="M497 1077q196 30 193 223v315q0 192 -182 192q-183 0 -183 -192v-227h-195v227q0 383 378 384q377 0 377 -384v-325q0 -197 -226 -313q226 -115 226 -289v-341q0 -384 -377 -384q-378 1 -378 384v227h195v-227q0 -192 183 -192q182 0 182 192v341q3 187 -196 197h-94v192
h97z" />
    <glyph glyph-name="four" unicode="4" horiz-adv-x="1024" 
d="M854 1965v-1270h115v-190h-115v-508h-195v508h-607v200l507 1260h295zM218 695h441v1118z" />
    <glyph glyph-name="five" unicode="5" horiz-adv-x="1015" 
d="M690 936q0 144 -78 177q-33 17 -102 17q-16 0 -31 -1q-133 -6 -151 -128l-1 -37h-195l40 1003h713v-191h-525l-27 -616q134 148 264 154q12 0 30 -3q134 -11 202 -104q56 -78 56 -271v-589q0 -383 -378 -383q-377 0 -377 383v194h195v-194q0 -192 182 -192q183 0 183 192
v589z" />
    <glyph glyph-name="six" unicode="6" horiz-adv-x="1015" 
d="M885 347q0 -383 -378 -383q-377 0 -377 383v1268q0 384 377 384q378 0 378 -384v-226h-195v226q0 192 -182 192h-2q-181 0 -181 -192v-621q156 140 258 140q20 0 41 -2q124 -13 191 -86q70 -75 70 -287v-412zM325 347q0 -192 182 -192q183 0 183 192v412q0 145 -78 178
q-34 15 -102 15q-16 0 -31 -1q-154 -6 -154 -192v-412z" />
    <glyph glyph-name="seven" unicode="7" horiz-adv-x="1016" 
d="M121 1775v190h780v-155l-408 -1813h-200l399 1778h-571z" />
    <glyph glyph-name="eight" unicode="8" horiz-adv-x="1015" 
d="M325 347q0 -192 183 -192q182 0 182 192v339q3 197 -183 197q-185 0 -182 -197v-339zM130 1615q0 383 378 384q377 0 377 -384v-349q0 -173 -226 -289q226 -115 226 -289v-341q0 -384 -377 -384q-378 1 -378 384v341q0 174 225 289q-225 116 -225 289v349zM325 1266
q-3 -190 154 -196q16 -1 34 -1q66 0 102 14q78 36 75 183v349q0 192 -182 192q-183 0 -183 -192v-349z" />
    <glyph glyph-name="nine" unicode="9" horiz-adv-x="1015" 
d="M690 1615q0 192 -182 192q-183 0 -183 -192v-412q0 -144 77 -178q35 -14 100 -14q17 0 32 1q156 5 156 191v412zM130 1615q0 383 378 384q377 0 377 -384v-1268q0 -383 -378 -383q-377 0 -377 383v227h195v-227q0 -191 182 -192h2q181 0 181 192v622q-157 -141 -261 -141
q-18 0 -37 2q-124 13 -192 86q-70 76 -70 287v412z" />
    <glyph glyph-name="colon" unicode=":" horiz-adv-x="479" 
d="M120 1315h239v-239h-239v239zM120 254h239v-240h-239v240z" />
    <glyph glyph-name="semicolon" unicode=";" horiz-adv-x="506" 
d="M120 263h266v-244l-100 -341h-93l62 346h-135v239zM120 1324h240v-239h-240v239z" />
    <glyph glyph-name="semicolon" unicode="&#x37e;" horiz-adv-x="506" 
d="M120 263h266v-244l-100 -341h-93l62 346h-135v239zM120 1324h240v-239h-240v239z" />
    <glyph glyph-name="less" unicode="&#x3c;" horiz-adv-x="989" 
d="M120 1096l749 420v-170l-661 -369l661 -360v-170l-749 404v245z" />
    <glyph glyph-name="equal" unicode="=" horiz-adv-x="989" 
d="M120 1154v142h749v-142h-749zM120 666v141h749v-141h-749z" />
    <glyph glyph-name="greater" unicode="&#x3e;" horiz-adv-x="989" 
d="M869 851l-749 -404v170l655 360l-655 369v170l749 -420v-245z" />
    <glyph glyph-name="question" unicode="?" horiz-adv-x="995" 
d="M242 235h240v-240h-240v240zM875 1406q0 -243 -195 -436q-225 -225 -225 -401v-59h-195v84q0 238 195 431q225 223 225 388v201q0 193 -181 193h-2q-182 0 -182 -193v-225h-195v225q0 385 378 385q377 0 377 -385v-208z" />
    <glyph glyph-name="at" unicode="@" horiz-adv-x="1448" 
d="M1317 1372v-135q0 -236 -230 -236h-168v-415q0 -236 -230 -236q-231 0 -231 236v271q0 235 231 235h139v328q0 144 -138 144h-2q-137 0 -137 -144v-21h-93v21q0 235 231 235q230 0 230 -235v-328h168q137 0 137 145v196q0 488 -499 488q-501 0 -501 -502v-846
q0 -488 501 -488q499 0 499 494h94q0 -583 -593 -583q-595 0 -595 577v846q0 591 595 591q593 0 593 -577v-61h-1zM672 1002q-138 0 -138 -145v-271q0 -145 138 -145t138 145v415z" />
    <glyph glyph-name="A" unicode="A" horiz-adv-x="988" 
d="M857 673l91 -676h-198l-58 439h-396l-59 -439h-197l89 672l204 1296h321zM666 628l-173 1170l-174 -1170h347z" />
    <glyph glyph-name="B" unicode="B" horiz-adv-x="985" 
d="M130 1965h409q346 -1 346 -384v-311q0 -173 -225 -289q225 -116 225 -289v-312q0 -382 -366 -383h-389v1968zM325 1775v-698h146q71 0 105 11q114 48 114 182v311q0 194 -182 194h-183zM325 885v-698h183q182 0 182 193v312q0 136 -114 181q-32 12 -105 12h-146z" />
    <glyph glyph-name="C" unicode="C" horiz-adv-x="965" 
d="M865 347q0 -383 -378 -384q-377 0 -377 384v1268q0 383 377 383q378 0 378 -383v-227h-195v227q0 191 -182 192h-2q-181 0 -181 -192v-1268q0 -192 182 -192q183 0 183 192v227h195v-227z" />
    <glyph glyph-name="D" unicode="D" horiz-adv-x="995" 
d="M130 1965h409q346 -1 346 -384v-1201q0 -382 -366 -383h-389v1968zM325 1775v-1588h183q182 0 182 193v1201q0 194 -182 194h-183z" />
    <glyph glyph-name="E" unicode="E" horiz-adv-x="881" 
d="M735 1077v-192h-410v-698h476v-190h-671v1968h671v-190h-476v-698h410z" />
    <glyph glyph-name="F" unicode="F" horiz-adv-x="861" 
d="M130 1965h671v-190h-476v-698h410v-192h-410v-888h-195v1968z" />
    <glyph glyph-name="G" unicode="G" 
d="M865 347q0 -383 -378 -384q-377 0 -377 384v1268q0 383 377 383q378 0 378 -383v-227h-195v227q0 191 -182 192h-2q-181 0 -181 -192v-1268q0 -192 182 -192q183 0 183 192v538h-151v192h346v-730z" />
    <glyph glyph-name="H" unicode="H" horiz-adv-x="1015" 
d="M130 1965h195v-888h365v888h195v-1968h-195v888h-365v-888h-195v1968z" />
    <glyph glyph-name="I" unicode="I" horiz-adv-x="465" 
d="M135 1965h195v-1968h-195v1968z" />
    <glyph glyph-name="J" unicode="J" horiz-adv-x="915" 
d="M30 418h195v-70q0 -193 183 -193q182 0 182 193v1619h195v-1619q0 -385 -377 -385q-378 1 -378 385v70z" />
    <glyph glyph-name="K" unicode="K" horiz-adv-x="979" 
d="M516 981l423 -984h-207l-407 931v-931h-195v1968h195v-943l407 943h207z" />
    <glyph glyph-name="L" unicode="L" horiz-adv-x="841" 
d="M130 -3v1968h195v-1778h476v-190h-671z" />
    <glyph glyph-name="M" unicode="M" horiz-adv-x="1453" 
d="M729 379l389 1586h205v-1968h-182v1591l-349 -1591h-119l-357 1578v-1578h-186v1968h206z" />
    <glyph glyph-name="N" unicode="N" horiz-adv-x="1015" 
d="M130 1965h205l377 -1598v1594l173 3v-1967h-205l-366 1563v-1563h-184v1968z" />
    <glyph glyph-name="O" unicode="O" 
d="M865 347q0 -383 -378 -384q-377 0 -377 384v1268q0 383 377 383q378 0 378 -383v-1268zM670 1615q0 191 -182 192h-2q-181 0 -181 -192v-1268q0 -192 182 -192q183 0 183 192v1268z" />
    <glyph glyph-name="P" unicode="P" horiz-adv-x="939" 
d="M130 1965h384q345 -1 345 -384v-311q0 -283 -250 -364q-61 -21 -183 -21h-101v-888h-195v1968zM325 1775v-698h120q72 0 105 11q114 48 114 182v311q0 194 -181 194h-158z" />
    <glyph glyph-name="Q" unicode="Q" 
d="M865 356q0 -344 -331 -385q12 -165 331 -167v-146q-201 0 -289 47q-101 51 -104 266q-362 27 -362 385v1268q0 383 377 383q378 0 378 -383v-1268zM670 1624q0 191 -182 192h-2q-181 0 -181 -192v-1268q0 -193 182 -193q183 0 183 193v1268z" />
    <glyph glyph-name="R" unicode="R" horiz-adv-x="969" 
d="M130 1965h384q345 -1 345 -384v-311q0 -238 -249 -330l329 -943h-216l-272 917l-126 -7v-910h-195v1968zM325 1775v-698h120q72 0 105 11q114 48 114 182v311q0 194 -181 194h-158z" />
    <glyph glyph-name="S" unicode="S" 
d="M110 1615q0 383 377 383q378 0 378 -383v-227h-195v227q0 191 -182 192h-2q-181 0 -181 -192v-188q0 -164 302 -381q258 -184 258 -437v-262q0 -384 -377 -384q-378 1 -378 384v227h195v-227q0 -192 183 -192q182 0 182 192v236q0 177 -302 393q-258 185 -258 445v194z
" />
    <glyph glyph-name="T" unicode="T" horiz-adv-x="855" 
d="M805 1965v-190h-280v-1778h-194v1778h-281v190h755z" />
    <glyph glyph-name="U" unicode="U" horiz-adv-x="995" 
d="M875 348q0 -384 -378 -385q-377 0 -377 385v1619h195v-1619q0 -193 182 -193q183 0 183 193v1619h195v-1619z" />
    <glyph glyph-name="V" unicode="V" horiz-adv-x="988" 
d="M654 -3h-321l-204 1294l-89 674h197l256 -1767l257 1767h198l-91 -676z" />
    <glyph glyph-name="W" unicode="W" horiz-adv-x="1707" 
d="M1213 200l257 1765h197l-90 -676l-203 -1292h-319l-201 1383l-200 -1383h-321l-204 1294l-89 674h196l257 -1764l257 1764h206z" />
    <glyph glyph-name="X" unicode="X" horiz-adv-x="949" 
d="M232 1965l230 -695l233 695h192l-329 -984l329 -984h-192l-233 695l-230 -695h-192l326 984l-326 984h192z" />
    <glyph glyph-name="Y" unicode="Y" horiz-adv-x="982" 
d="M245 1965l245 -970l245 970h207l-354 -1140v-828h-195v828l-353 1140h205z" />
    <glyph glyph-name="Z" unicode="Z" horiz-adv-x="817" 
d="M719 1845l-422 -1658h440v-190h-657v120l421 1658h-408v190h626v-120z" />
    <glyph glyph-name="bracketleft" unicode="[" horiz-adv-x="465" 
d="M435 2227v-140h-163v-2210h163v-141h-305v2491h305z" />
    <glyph glyph-name="backslash" unicode="\" horiz-adv-x="657" 
d="M204 1966l393 -1969h-144l-393 1969h144z" />
    <glyph glyph-name="bracketright" unicode="]" horiz-adv-x="465" 
d="M335 2227v-2491h-305v141h163v2210h-163v140h305z" />
    <glyph glyph-name="asciicircum" unicode="^" horiz-adv-x="1052" 
d="M626 1949l326 -747h-154l-273 624l-270 -624h-155l326 747h200z" />
    <glyph glyph-name="underscore" unicode="_" horiz-adv-x="986" 
d="M0 -272v119h986v-119h-986z" />
    <glyph glyph-name="grave" unicode="`" horiz-adv-x="663" 
d="M130 2031h186l217 -199h-141l-262 168v31z" />
    <glyph glyph-name="a" unicode="a" horiz-adv-x="988" 
d="M857 592l91 -595h-198l-58 387h-396l-59 -387h-197l89 591l204 1141h321zM666 552l-173 1030l-174 -1030h347z" />
    <glyph glyph-name="b" unicode="b" horiz-adv-x="985" 
d="M130 1729h409q346 -1 346 -338v-274q0 -152 -225 -254q225 -102 225 -254v-275q0 -336 -366 -337h-389v1732zM325 1561v-614h146q71 0 105 10q114 42 114 160v274q0 170 -182 170h-183zM325 779v-614h183q182 0 182 169v275q0 119 -114 159q-32 11 -105 11h-146z" />
    <glyph glyph-name="c" unicode="c" horiz-adv-x="965" 
d="M865 301q0 -337 -378 -338q-377 0 -377 338v1116q0 337 377 337q378 0 378 -337v-200h-195v200q0 168 -182 169h-2q-181 0 -181 -169v-1116q0 -169 182 -169q183 0 183 169v200h195v-200z" />
    <glyph glyph-name="d" unicode="d" horiz-adv-x="995" 
d="M130 1729h409q346 -1 346 -338v-1057q0 -336 -366 -337h-389v1732zM325 1561v-1396h183q182 0 182 169v1057q0 170 -182 170h-183z" />
    <glyph glyph-name="e" unicode="e" horiz-adv-x="881" 
d="M735 947v-168h-410v-614h476v-168h-671v1732h671v-168h-476v-614h410z" />
    <glyph glyph-name="f" unicode="f" horiz-adv-x="861" 
d="M130 1729h671v-168h-476v-614h410v-168h-410v-782h-195v1732z" />
    <glyph glyph-name="g" unicode="g" 
d="M865 301q0 -337 -378 -338q-377 0 -377 338v1116q0 337 377 337q378 0 378 -337v-200h-195v200q0 168 -182 169h-2q-181 0 -181 -169v-1116q0 -169 182 -169q183 0 183 169v473h-151v169h346v-642z" />
    <glyph glyph-name="h" unicode="h" horiz-adv-x="1015" 
d="M130 1729h195v-782h365v782h195v-1732h-195v782h-365v-782h-195v1732z" />
    <glyph glyph-name="i" unicode="i" horiz-adv-x="465" 
d="M135 1729h195v-1732h-195v1732z" />
    <glyph glyph-name="j" unicode="j" horiz-adv-x="915" 
d="M30 364h195v-62q0 -170 183 -170q182 0 182 170v1424h195v-1424q0 -339 -377 -339q-378 1 -378 339v62z" />
    <glyph glyph-name="k" unicode="k" horiz-adv-x="979" 
d="M516 863l423 -866h-207l-407 819v-819h-195v1732h195v-830l407 830h207z" />
    <glyph glyph-name="l" unicode="l" horiz-adv-x="841" 
d="M130 -3v1732h195v-1564h476v-168h-671z" />
    <glyph glyph-name="m" unicode="m" horiz-adv-x="1453" 
d="M729 333l389 1396h205v-1732h-182v1400l-349 -1400h-119l-357 1388v-1388h-186v1732h206z" />
    <glyph glyph-name="n" unicode="n" horiz-adv-x="1015" 
d="M130 1729h205l377 -1406v1402l173 3v-1731h-205l-366 1376v-1376h-184v1732z" />
    <glyph glyph-name="o" unicode="o" 
d="M865 301q0 -337 -378 -338q-377 0 -377 338v1116q0 337 377 337q378 0 378 -337v-1116zM670 1417q0 168 -182 169h-2q-181 0 -181 -169v-1116q0 -169 182 -169q183 0 183 169v1116z" />
    <glyph glyph-name="p" unicode="p" horiz-adv-x="939" 
d="M130 1729h384q345 -1 345 -338v-274q0 -249 -250 -321q-61 -17 -183 -17h-101v-782h-195v1732zM325 1561v-614h120q72 0 105 10q114 42 114 160v274q0 170 -181 170h-158z" />
    <glyph glyph-name="q" unicode="q" 
d="M865 272q0 -303 -331 -338q12 -146 331 -148v-128q-201 0 -289 41q-101 45 -104 235q-362 23 -362 338v1116q0 337 377 337q378 0 378 -337v-1116zM670 1388q0 168 -182 169h-2q-181 0 -181 -169v-1116q0 -170 182 -170q183 0 183 170v1116z" />
    <glyph glyph-name="r" unicode="r" horiz-adv-x="969" 
d="M130 1729h384q345 -1 345 -338v-274q0 -209 -249 -290l329 -830h-216l-272 807l-126 -6v-801h-195v1732zM325 1561v-614h120q72 0 105 10q114 42 114 160v274q0 170 -181 170h-158z" />
    <glyph glyph-name="s" unicode="s" 
d="M110 1417q0 337 377 337q378 0 378 -337v-200h-195v200q0 168 -182 169h-2q-181 0 -181 -169v-166q0 -144 302 -335q258 -162 258 -385v-230q0 -338 -377 -338q-378 1 -378 338v200h195v-200q0 -169 183 -169q182 0 182 169v208q0 155 -302 345q-258 163 -258 392v171z
" />
    <glyph glyph-name="t" unicode="t" horiz-adv-x="855" 
d="M805 1729v-168h-280v-1564h-194v1564h-281v168h755z" />
    <glyph glyph-name="u" unicode="u" horiz-adv-x="995" 
d="M875 302q0 -338 -378 -339q-377 0 -377 339v1424h195v-1424q0 -170 182 -170q183 0 183 170v1424h195v-1424z" />
    <glyph glyph-name="v" unicode="v" horiz-adv-x="988" 
d="M654 -3h-321l-204 1139l-89 593h197l256 -1555l257 1555h198l-91 -595z" />
    <glyph glyph-name="w" unicode="w" horiz-adv-x="1707" 
d="M1213 176l257 1553h197l-90 -595l-203 -1137h-319l-201 1217l-200 -1217h-321l-204 1139l-89 593h196l257 -1552l257 1552h206z" />
    <glyph glyph-name="x" unicode="x" horiz-adv-x="949" 
d="M232 1729l230 -612l233 612h192l-329 -866l329 -866h-192l-233 612l-230 -612h-192l326 866l-326 866h192z" />
    <glyph glyph-name="y" unicode="y" horiz-adv-x="982" 
d="M245 1729l245 -854l245 854h207l-354 -1003v-729h-195v729l-353 1003h205z" />
    <glyph glyph-name="z" unicode="z" horiz-adv-x="817" 
d="M719 1623l-422 -1458h440v-168h-657v106l421 1458h-408v168h626v-106z" />
    <glyph glyph-name="braceleft" unicode="{" horiz-adv-x="469" 
d="M439 -264q-312 5 -312 384v598q0 190 -117 192v144q117 3 117 191v599q0 378 312 383v-142q-117 -3 -117 -192v-598q0 -192 -99 -313q99 -122 99 -314v-598q0 -188 117 -191v-143z" />
    <glyph glyph-name="bar" unicode="|" horiz-adv-x="421" 
d="M140 2312h141v-2661h-141v2661z" />
    <glyph glyph-name="braceright" unicode="}" horiz-adv-x="469" 
d="M30 -121q117 3 117 191v598q0 192 99 314q-99 121 -99 313v598q0 189 -117 192v142q312 -5 312 -383v-599q0 -188 117 -191v-144q-117 -2 -117 -192v-598q0 -379 -312 -384v143z" />
    <glyph glyph-name="asciitilde" unicode="~" horiz-adv-x="1005" 
d="M190 895l-90 57l29 45q89 139 201 139h10q75 -5 206 -102q85 -64 149 -64q59 0 95 44l32 42l83 -66l-32 -42q-79 -101 -176 -101h-10q-76 5 -204 101q-94 71 -123 76q-9 2 -21 2q-65 0 -120 -87z" />
    <glyph glyph-name="exclamdown" unicode="&#xa1;" horiz-adv-x="580" 
d="M120 -236l23 1454h195l22 -1454h-240zM360 1494h-240v238h240v-238z" />
    <glyph glyph-name="cent" unicode="&#xa2;" horiz-adv-x="999" 
d="M315 248l365 1195q-17 158 -182 159q-183 0 -183 -176v-1178zM341 199q71 -65 156 -65q183 0 183 175v194h195v-194q0 -331 -378 -331q-94 0 -213 33l-107 -349l-41 2l112 366q-128 101 -128 279v1117q0 333 377 333q125 0 262 -57l79 261l41 -4l-88 -288
q84 -100 84 -245v-193h-217z" />
    <glyph glyph-name="sterling" unicode="&#xa3;" horiz-adv-x="1079" 
d="M459 965v-438q0 -172 -109 -341h585v-191h-875v191h20q184 0 184 194v585h-204v64h204v585q0 385 376 385q379 0 379 -385v-225h-195v225q0 193 -182 193h-3q-180 0 -180 -193v-585h350v-64h-350z" />
    <glyph glyph-name="currency" unicode="&#xa4;" horiz-adv-x="1315" 
d="M1037 841q0 -56 -12 -131l160 -158l-105 -107l-114 113q-124 -100 -308 -100q-185 0 -310 99l-110 -113l-108 108l160 158q-9 73 -9 131v282q0 49 7 113l-158 157l107 107l103 -105q124 112 318 112q193 0 319 -112l103 105l105 -107l-158 -157q10 -65 10 -113v-282z
M842 1123q0 192 -183 193h-2q-181 0 -181 -193v-282q0 -192 182 -192q184 0 184 192v282z" />
    <glyph glyph-name="yen" unicode="&#xa5;" horiz-adv-x="1102" 
d="M421 924l-321 1041h205l245 -968l245 968h207l-322 -1041h245v-63h-277v-273h277v-63h-277v-528h-195v528h-276v63h276v273h-276v63h244z" />
    <glyph glyph-name="brokenbar" unicode="&#xa6;" horiz-adv-x="421" 
d="M140 1726h141v-681h-141v681zM140 727h141v-724h-141v724z" />
    <glyph glyph-name="section" unicode="&#xa7;" horiz-adv-x="995" 
d="M500 -341q-356 0 -356 350v60h195v-60q0 -183 172 -183q168 0 168 183q0 231 -305 417q-254 152 -254 487q0 251 259 352q-259 174 -259 419q0 324 373 324q356 0 356 -324v-54h-195v54q0 173 -170 173q-169 0 -169 -173q0 -221 306 -394q254 -144 254 -454
q0 -259 -338 -337q338 -208 338 -490q0 -350 -375 -350zM683 899q0 203 -193 205h-2q-192 0 -192 -205v-43q0 -204 193 -204q194 0 194 204v43z" />
    <glyph glyph-name="dieresis" unicode="&#xa8;" horiz-adv-x="831" 
d="M130 2002h152v-150h-152v150zM548 2002h153v-150h-153v150z" />
    <glyph glyph-name="copyright" unicode="&#xa9;" horiz-adv-x="1428" 
d="M1308 586q0 -590 -594 -590t-594 577v846q0 591 594 591t594 -577v-847zM1214 1433q0 488 -499 488q-501 0 -501 -502v-846q0 -488 500 -488t500 501v847zM950 582q0 -239 -234 -239t-234 239v842q0 238 234 238t234 -238v-28h-96v28q0 146 -137 147q-140 0 -140 -147
v-842q0 -147 139 -147q138 0 138 147v27h96v-27z" />
    <glyph glyph-name="ordfeminine" unicode="&#xaa;" horiz-adv-x="679" 
d="M574.837 910.163l60.0576 -356.985h-130.675l-38.2783 232.19h-261.35l-38.9385 -232.19h-130.015l58.7373 354.585l134.635 684.572h211.852zM448.781 886.164l-114.175 617.975l-114.835 -617.975h229.01zM46.5 685v119h493v-119h-493z" />
    <glyph glyph-name="guillemotleft" unicode="&#xab;" horiz-adv-x="1331" 
d="M588 1213l-265 -224l265 -218v-195l-458 426l458 418v-207zM1077 1213l-265 -224l265 -218v-195l-458 426l458 418v-207z" />
    <glyph glyph-name="logicalnot" unicode="&#xac;" horiz-adv-x="1009" 
d="M130 919v141h749v-444h-141v303h-608z" />
    <glyph glyph-name="registered" unicode="&#xae;" horiz-adv-x="1428" 
d="M1308 586q0 -590 -594 -590t-594 577v846q0 591 594 591t594 -577v-847zM1214 1433q0 488 -499 488q-501 0 -501 -502v-846q0 -488 500 -488t500 501v847zM477 1641l242 -2h13q212 0 212 -236v-208q0 -104 -171 -192q171 -88 171 -193v-444h-94v444q0 100 -86 136
q-25 11 -78 11h-114v-591h-95v1275zM572 1549v-500h114q53 0 78 11q86 34 86 135v208q0 146 -138 146h-140z" />
    <glyph glyph-name="macron" unicode="&#xaf;" horiz-adv-x="1172" 
d="M0 1798v119h1172v-119h-1172z" />
    <glyph glyph-name="degree" unicode="&#xb0;" horiz-adv-x="808" 
d="M678 1741q0 -274 -275 -274q-273 0 -273 274q0 273 273 273q275 0 275 -273zM403 1926q-184 0 -184 -185q0 -186 184 -186q186 0 186 186q0 185 -186 185z" />
    <glyph glyph-name="plusminus" unicode="&#xb1;" horiz-adv-x="989" 
d="M424 922h-304v143h304v303h142v-303h303v-143h-303v-303h-142v303zM867 298v-121h-747v121h747z" />
    <glyph glyph-name="uni00B2" unicode="&#xb2;" horiz-adv-x="629" 
d="M100 1065q0 144 146 250q173 122 174 218v232q0 112 -105 112h-1q-105 0 -105 -112v-127h-109v127q0 219 214 219q215 0 215 -219v-236q0 -148 -147 -254q-173 -123 -173 -225v-102h320v-107h-429v224z" />
    <glyph glyph-name="uni00B3" unicode="&#xb3;" horiz-adv-x="634" 
d="M425 1256q0 85 -45 106q-22 9 -58 9h-28v107h41q32 0 52 12q38 23 38 100v179q0 84 -45 106q-22 9 -60 9q-11 0 -20 -2q-91 -3 -91 -113v-129h-109v130q0 155 84 197q63 34 129 34q63 0 128 -29q93 -41 93 -202v-181q0 -99 -130 -167q130 -67 130 -166v-218
q0 -140 -67 -188q-44 -30 -141 -34h-15q-87 0 -132 27q-79 45 -79 195v130h109v-131q0 -114 108 -114t108 114v219z" />
    <glyph glyph-name="acute" unicode="&#xb4;" horiz-adv-x="663" 
d="M533 2000l-262 -168h-141l217 199h186v-31z" />
    <glyph glyph-name="mu" unicode="&#xb5;" horiz-adv-x="1005" 
d="M325 364q0 -191 182 -191q183 0 183 192v1273h195v-1273q0 -346 -291 -378q-18 -3 -34 -3q-82 0 -235 100v-414h-195v1968h195v-1274z" />
    <glyph glyph-name="paragraph" unicode="&#xb6;" horiz-adv-x="1119" 
d="M989 1966v-1969h-108v1861h-340v-1861h-108v1079q-239 0 -281 30q-52 39 -52 223v374q0 184 55 229q45 34 226 34h608z" />
    <glyph glyph-name="periodcentered" unicode="&#xb7;" horiz-adv-x="520" 
d="M117.297 935.823h203.994v-203.145h-203.994v203.145z" />
    <glyph glyph-name="periodcentered" unicode="&#x2219;" horiz-adv-x="520" 
d="M117.297 935.823h203.994v-203.145h-203.994v203.145z" />
    <glyph glyph-name="cedilla" unicode="&#xb8;" horiz-adv-x="584" 
d="M244 -92q53 31 97 31q8 0 18 -2q49 -7 68 -31t19 -68v-60q0 -93 -98 -101q-17 -2 -39 -2q-12 0 -23 1q-117 3 -117 101h75q0 -56 64 -56q63 0 63 57v60q0 58 -60 61h-3q-48 0 -57 -22h-72l24 123h69z" />
    <glyph glyph-name="uni00B9" unicode="&#xb9;" horiz-adv-x="1028" 
d="M395 1951v-1006h159v-104h-424v104h159v902h-159v104h265z" />
    <glyph glyph-name="ordmasculine" unicode="&#xba;" horiz-adv-x="718" 
d="M595.296 726.57q0 -202.191 -249.47 -202.792q-248.811 0 -248.811 202.792v669.573q0 202.191 248.811 202.191q249.47 0 249.47 -202.191v-669.573zM466.601 1396.14q0 100.796 -120.114 101.396h-1.32031q-119.455 0 -119.455 -101.396v-669.573
q0 -101.396 120.115 -101.396q120.774 0 120.774 101.396v669.573zM56 649v119h493v-119h-493z" />
    <glyph glyph-name="guillemotright" unicode="&#xbb;" horiz-adv-x="1331" 
d="M130 1420l458 -418l-458 -426v195l266 218l-266 224v207zM619 1420l458 -418l-458 -426v195l266 218l-266 224v207z" />
    <glyph glyph-name="onequarter" unicode="&#xbc;" horiz-adv-x="1597" 
d="M1432 1099v-714h65v-103h-65v-286h-106v286h-341v109l284 708h163zM1074 385h252v639zM1305 1967l-725 -1971h-116l726 1971h115zM385 1966v-1006h159v-104h-424v104h159v902h-159v104h265z" />
    <glyph glyph-name="onehalf" unicode="&#xbd;" horiz-adv-x="1678" 
d="M1245 1967l-725 -1971h-116l726 1971h115zM325 1966v-1006h159v-104h-424v104h159v902h-159v104h265zM1149 220q0 144 146 249q173 122 174 219v232q0 112 -105 112h-1q-105 0 -105 -112v-128h-109v128q0 218 214 218q215 0 215 -218v-236q0 -148 -147 -254
q-173 -123 -173 -225v-103h320v-106h-429v224z" />
    <glyph glyph-name="threequarters" unicode="&#xbe;" horiz-adv-x="1535" 
d="M1370 1098v-714h65v-103h-65v-286h-106v286h-340v110l283 707h163zM1013 384h251v640zM1244 1966l-725 -1971h-116l726 1971h115zM425 1270q0 85 -45 107q-22 8 -58 8h-28v108h41q32 0 52 11q38 23 38 101v178q0 85 -45 107q-22 8 -60 8q-11 0 -20 -1q-91 -3 -91 -114
v-128h-109v129q0 155 84 198q63 33 129 33q63 0 128 -29q93 -40 93 -202v-180q0 -100 -130 -167q130 -67 130 -167v-217q0 -140 -67 -189q-44 -30 -141 -33h-15q-87 0 -132 27q-79 44 -79 195v129h109v-130q0 -114 108 -114t108 114v218z" />
    <glyph glyph-name="questiondown" unicode="&#xbf;" horiz-adv-x="995" 
d="M753 1489h-240v240h240v-240zM120 318q0 243 195 436q225 225 225 401v59h195v-84q0 -238 -195 -431q-225 -223 -225 -388v-201q0 -193 181 -193h2q182 0 182 193v225h195v-225q0 -385 -378 -385q-377 0 -377 385v208z" />
    <glyph glyph-name="Agrave" unicode="&#xc0;" horiz-adv-x="988" 
d="M857 673l91 -676h-198l-58 439h-396l-59 -439h-197l89 672l204 1296h321zM666 628l-173 1170l-174 -1170h347zM225 2264h186l217 -199h-141l-262 168v31z" />
    <glyph glyph-name="Aacute" unicode="&#xc1;" horiz-adv-x="988" 
d="M857 673l91 -676h-198l-58 439h-396l-59 -439h-197l89 672l204 1296h321zM666 628l-173 1170l-174 -1170h347zM763 2233l-262 -168h-141l217 199h186v-31z" />
    <glyph glyph-name="Acircumflex" unicode="&#xc2;" horiz-adv-x="988" 
d="M857 673l91 -676h-198l-58 439h-396l-59 -439h-197l89 672l204 1296h321zM666 628l-173 1170l-174 -1170h347zM167 2066l202 198h249l203 -198h-177l-151 102l-150 -102h-176z" />
    <glyph glyph-name="Atilde" unicode="&#xc3;" horiz-adv-x="988" 
d="M857 673l91 -676h-198l-58 439h-396l-59 -439h-197l89 672l204 1296h321zM666 628l-173 1170l-174 -1170h347zM266 2043l-87 47l23 46q61 124 153 129h6q61 0 163 -63q61 -39 104 -39q45 0 71 39l26 42l83 -55l-27 -44q-58 -93 -139 -97h-6q-60 0 -161 64q-73 46 -95 49
h-7q-48 0 -85 -73z" />
    <glyph glyph-name="Adieresis" unicode="&#xc4;" horiz-adv-x="988" 
d="M857 673l91 -676h-198l-58 439h-396l-59 -439h-197l89 672l204 1296h321zM666 628l-173 1170l-174 -1170h347zM208 2235h152v-150h-152v150zM626 2235h153v-150h-153v150z" />
    <glyph glyph-name="Aring" unicode="&#xc5;" horiz-adv-x="988" 
d="M666 628l-173 1170l-174 -1170h347zM493 2208q-114 0 -114 -114q0 -115 114 -115q115 0 115 115q0 114 -115 114zM626 1965h28l203 -1292l91 -676h-198l-58 439h-396l-59 -439h-197l89 672l204 1296h27q-41 44 -41 129q0 174 174 174q175 0 175 -174q0 -85 -42 -129z" />
    <glyph glyph-name="AE" unicode="&#xc6;" horiz-adv-x="1239" 
d="M1159 1965v-190h-476v-698h410v-192h-410v-698h476v-190h-671v439h-192l-59 -439h-197l89 672l204 1296h826zM488 1764l-169 -1136h169v1136z" />
    <glyph glyph-name="Ccedilla" unicode="&#xc7;" horiz-adv-x="965" 
d="M378 -27q-268 50 -268 374v1268q0 383 377 383q378 0 378 -383v-227h-195v227q0 191 -182 192h-2q-181 0 -181 -192v-1268q0 -192 182 -192q183 0 183 192v227h195v-227q0 -383 -378 -384q-24 0 -46 2l-17 -57q53 31 97 31q8 0 18 -2q49 -7 68 -31t19 -68v-60
q0 -93 -98 -101q-17 -2 -39 -2q-12 0 -23 1q-117 3 -117 101h75q0 -56 64 -56q63 0 63 57v60q0 58 -60 61h-3q-48 0 -57 -22h-72z" />
    <glyph glyph-name="Egrave" unicode="&#xc8;" horiz-adv-x="881" 
d="M735 1077v-192h-410v-698h476v-190h-671v1968h671v-190h-476v-698h410zM197 2264h186l217 -199h-141l-262 168v31z" />
    <glyph glyph-name="Eacute" unicode="&#xc9;" horiz-adv-x="881" 
d="M735 1077v-192h-410v-698h476v-190h-671v1968h671v-190h-476v-698h410zM734 2233l-262 -168h-141l217 199h186v-31z" />
    <glyph glyph-name="Ecircumflex" unicode="&#xca;" horiz-adv-x="881" 
d="M735 1077v-192h-410v-698h476v-190h-671v1968h671v-190h-476v-698h410zM139 2066l202 198h249l203 -198h-177l-151 102l-150 -102h-176z" />
    <glyph glyph-name="Edieresis" unicode="&#xcb;" horiz-adv-x="881" 
d="M735 1077v-192h-410v-698h476v-190h-671v1968h671v-190h-476v-698h410zM180 2235h152v-150h-152v150zM598 2235h153v-150h-153v150z" />
    <glyph glyph-name="Igrave" unicode="&#xcc;" horiz-adv-x="465" 
d="M135 1965h195v-1968h-195v1968zM-36 2264h186l217 -199h-141l-262 168v31z" />
    <glyph glyph-name="Iacute" unicode="&#xcd;" horiz-adv-x="465" 
d="M135 1965h195v-1968h-195v1968zM501 2233l-262 -168h-141l217 199h186v-31z" />
    <glyph glyph-name="Icircumflex" unicode="&#xce;" horiz-adv-x="465" 
d="M135 1965h195v-1968h-195v1968zM-95 2066l202 198h249l203 -198h-177l-151 102l-150 -102h-176z" />
    <glyph glyph-name="Idieresis" unicode="&#xcf;" horiz-adv-x="465" 
d="M135 1965h195v-1968h-195v1968zM-53 2235h152v-150h-152v150zM365 2235h153v-150h-153v150z" />
    <glyph glyph-name="Eth" unicode="&#xd0;" horiz-adv-x="1064" 
d="M383 922v-735h184q183 0 183 193v1201q0 194 -183 194h-184v-734h104v-119h-104zM189 1041v924l409 -1q346 0 346 -383v-1201q0 -382 -346 -382q-9 0 -22 -1h-387v925h-131v119h131z" />
    <glyph glyph-name="Ntilde" unicode="&#xd1;" horiz-adv-x="1015" 
d="M130 1965h205l377 -1598v1594l173 3v-1967h-205l-366 1563v-1563h-184v1968zM280 2043l-87 47l23 46q61 124 153 129h6q61 0 163 -63q61 -39 104 -39q45 0 71 39l26 42l83 -55l-27 -44q-58 -93 -139 -97h-6q-60 0 -161 64q-73 46 -95 49h-7q-48 0 -85 -73z" />
    <glyph glyph-name="Ograve" unicode="&#xd2;" 
d="M865 347q0 -383 -378 -384q-377 0 -377 384v1268q0 383 377 383q378 0 378 -383v-1268zM670 1615q0 191 -182 192h-2q-181 0 -181 -192v-1268q0 -192 182 -192q183 0 183 192v1268zM219 2264h186l217 -199h-141l-262 168v31z" />
    <glyph glyph-name="Oacute" unicode="&#xd3;" 
d="M865 347q0 -383 -378 -384q-377 0 -377 384v1268q0 383 377 383q378 0 378 -383v-1268zM670 1615q0 191 -182 192h-2q-181 0 -181 -192v-1268q0 -192 182 -192q183 0 183 192v1268zM756 2233l-262 -168h-141l217 199h186v-31z" />
    <glyph glyph-name="Ocircumflex" unicode="&#xd4;" 
d="M865 347q0 -383 -378 -384q-377 0 -377 384v1268q0 383 377 383q378 0 378 -383v-1268zM670 1615q0 191 -182 192h-2q-181 0 -181 -192v-1268q0 -192 182 -192q183 0 183 192v1268zM160 2066l202 198h249l203 -198h-177l-151 102l-150 -102h-176z" />
    <glyph glyph-name="Otilde" unicode="&#xd5;" 
d="M865 347q0 -383 -378 -384q-377 0 -377 384v1268q0 383 377 383q378 0 378 -383v-1268zM670 1615q0 191 -182 192h-2q-181 0 -181 -192v-1268q0 -192 182 -192q183 0 183 192v1268zM260 2043l-87 47l23 46q61 124 153 129h6q61 0 163 -63q61 -39 104 -39q45 0 71 39
l26 42l83 -55l-27 -44q-58 -93 -139 -97h-6q-60 0 -161 64q-73 46 -95 49h-7q-48 0 -85 -73z" />
    <glyph glyph-name="Odieresis" unicode="&#xd6;" 
d="M865 347q0 -383 -378 -384q-377 0 -377 384v1268q0 383 377 383q378 0 378 -383v-1268zM670 1615q0 191 -182 192h-2q-181 0 -181 -192v-1268q0 -192 182 -192q183 0 183 192v1268zM202 2235h152v-150h-152v150zM620 2235h153v-150h-153v150z" />
    <glyph glyph-name="multiply" unicode="&#xd7;" horiz-adv-x="941" 
d="M471 881l-214 -215l-101 102l215 214l-214 214l100 101l215 -215l213 215l100 -102l-215 -213l215 -214l-100 -101z" />
    <glyph glyph-name="Oslash" unicode="&#xd8;" 
d="M561 1797q-32 10 -73 10h-2q-181 0 -181 -192v-1273zM418 164q30 -9 69 -9q183 0 183 192v1252zM729 1937q136 -92 136 -322v-1268q0 -383 -378 -384q-56 0 -103 8l-21 -119h-144l30 170q-139 92 -139 325v1268q0 383 377 383q58 0 107 -9l18 100h144z" />
    <glyph glyph-name="Ugrave" unicode="&#xd9;" horiz-adv-x="995" 
d="M875 348q0 -384 -378 -385q-377 0 -377 385v1619h195v-1619q0 -193 182 -193q183 0 183 193v1619h195v-1619zM229 2264h186l217 -199h-141l-262 168v31z" />
    <glyph glyph-name="Uacute" unicode="&#xda;" horiz-adv-x="995" 
d="M875 348q0 -384 -378 -385q-377 0 -377 385v1619h195v-1619q0 -193 182 -193q183 0 183 193v1619h195v-1619zM766 2233l-262 -168h-141l217 199h186v-31z" />
    <glyph glyph-name="Ucircumflex" unicode="&#xdb;" horiz-adv-x="995" 
d="M875 348q0 -384 -378 -385q-377 0 -377 385v1619h195v-1619q0 -193 182 -193q183 0 183 193v1619h195v-1619zM170 2066l202 198h249l203 -198h-177l-151 102l-150 -102h-176z" />
    <glyph glyph-name="Udieresis" unicode="&#xdc;" horiz-adv-x="995" 
d="M875 348q0 -384 -378 -385q-377 0 -377 385v1619h195v-1619q0 -193 182 -193q183 0 183 193v1619h195v-1619zM212 2235h152v-150h-152v150zM630 2235h153v-150h-153v150z" />
    <glyph glyph-name="Yacute" unicode="&#xdd;" horiz-adv-x="982" 
d="M245 1965l245 -970l245 970h207l-354 -1140v-828h-195v828l-353 1140h205zM760 2233l-262 -168h-141l217 199h186v-31z" />
    <glyph glyph-name="Thorn" unicode="&#xde;" horiz-adv-x="958" 
d="M325 1629h149q5 0 17 -1h23q344 0 344 -383v-312q0 -282 -249 -364q-62 -20 -184 -20h-100v-889h-195v2315h195v-346zM325 1438v-699h119q74 0 106 13q113 48 113 181v312q0 193 -181 193h-157z" />
    <glyph glyph-name="germandbls" unicode="&#xdf;" horiz-adv-x="995" 
d="M885 1276q0 -174 -228 -289q228 -115 228 -288v-537q0 -382 -324 -382v189q129 0 129 193v537q0 133 -113 180q-34 13 -107 13h-145v-889h-195v1585q0 383 377 383q378 0 378 -383v-312zM325 1083h145q73 0 106 12q114 44 114 181v312q0 192 -182 193h-2
q-181 0 -181 -193v-505z" />
    <glyph glyph-name="agrave" unicode="&#xe0;" horiz-adv-x="988" 
d="M857 592l91 -595h-198l-58 387h-396l-59 -387h-197l89 591l204 1141h321zM666 552l-173 1030l-174 -1030h347zM225 2031h186l217 -199h-141l-262 168v31z" />
    <glyph glyph-name="aacute" unicode="&#xe1;" horiz-adv-x="988" 
d="M857 592l91 -595h-198l-58 387h-396l-59 -387h-197l89 591l204 1141h321zM666 552l-173 1030l-174 -1030h347zM763 2000l-262 -168h-141l217 199h186v-31z" />
    <glyph glyph-name="acircumflex" unicode="&#xe2;" horiz-adv-x="988" 
d="M857 592l91 -595h-198l-58 387h-396l-59 -387h-197l89 591l204 1141h321zM666 552l-173 1030l-174 -1030h347zM167 1833l202 198h249l203 -198h-177l-151 102l-150 -102h-176z" />
    <glyph glyph-name="atilde" unicode="&#xe3;" horiz-adv-x="988" 
d="M857 592l91 -595h-198l-58 387h-396l-59 -387h-197l89 591l204 1141h321zM666 552l-173 1030l-174 -1030h347zM266 1810l-87 47l23 46q61 124 153 129h6q61 0 163 -63q61 -39 104 -39q45 0 71 39l26 42l83 -55l-27 -44q-58 -93 -139 -97h-6q-60 0 -161 64q-73 46 -95 49
h-7q-48 0 -85 -73z" />
    <glyph glyph-name="adieresis" unicode="&#xe4;" horiz-adv-x="988" 
d="M857 592l91 -595h-198l-58 387h-396l-59 -387h-197l89 591l204 1141h321zM666 552l-173 1030l-174 -1030h347zM208 2002h152v-150h-152v150zM626 2002h153v-150h-153v150z" />
    <glyph glyph-name="aring" unicode="&#xe5;" horiz-adv-x="988" 
d="M666 552l-173 1030l-174 -1030h347zM493 1975q-114 0 -114 -114q0 -115 114 -115q115 0 115 115q0 114 -115 114zM623 1729h31l203 -1137l91 -595h-198l-58 387h-396l-59 -387h-197l89 591l204 1141h30q-44 44 -44 132q0 174 174 174q175 0 175 -174q0 -88 -45 -132z" />
    <glyph glyph-name="ae" unicode="&#xe6;" horiz-adv-x="1284" 
d="M1204 1729v-168h-476v-614h410v-168h-410v-614h476v-168h-671v387h-237l-59 -387h-197l89 591l204 1141h871zM533 1344l-40 238l-174 -1030h214v792z" />
    <glyph glyph-name="ccedilla" unicode="&#xe7;" horiz-adv-x="965" 
d="M377 -29q-267 45 -267 330v1116q0 337 377 337q378 0 378 -337v-200h-195v200q0 168 -182 169h-2q-181 0 -181 -169v-1116q0 -169 182 -169q183 0 183 169v200h195v-200q0 -337 -378 -338q-24 0 -46 1l-17 -56q53 31 97 31q8 0 18 -2q49 -7 68 -31t19 -68v-60
q0 -93 -98 -101q-17 -2 -39 -2q-12 0 -23 1q-117 3 -117 101h75q0 -56 64 -56q63 0 63 57v60q0 58 -60 61h-3q-48 0 -57 -22h-72z" />
    <glyph glyph-name="egrave" unicode="&#xe8;" horiz-adv-x="881" 
d="M735 947v-168h-410v-614h476v-168h-671v1732h671v-168h-476v-614h410zM197 2031h186l217 -199h-141l-262 168v31z" />
    <glyph glyph-name="eacute" unicode="&#xe9;" horiz-adv-x="881" 
d="M735 947v-168h-410v-614h476v-168h-671v1732h671v-168h-476v-614h410zM734 2000l-262 -168h-141l217 199h186v-31z" />
    <glyph glyph-name="ecircumflex" unicode="&#xea;" horiz-adv-x="881" 
d="M735 947v-168h-410v-614h476v-168h-671v1732h671v-168h-476v-614h410zM139 1833l202 198h249l203 -198h-177l-151 102l-150 -102h-176z" />
    <glyph glyph-name="edieresis" unicode="&#xeb;" horiz-adv-x="881" 
d="M735 947v-168h-410v-614h476v-168h-671v1732h671v-168h-476v-614h410zM180 2002h152v-150h-152v150zM598 2002h153v-150h-153v150z" />
    <glyph glyph-name="igrave" unicode="&#xec;" horiz-adv-x="426" 
d="M135 1726h195v-1723h-195v1723zM-36 2031h186l217 -199h-141l-262 168v31z" />
    <glyph glyph-name="iacute" unicode="&#xed;" horiz-adv-x="426" 
d="M135 1726h195v-1723h-195v1723zM501 2000l-262 -168h-141l217 199h186v-31z" />
    <glyph glyph-name="icircumflex" unicode="&#xee;" horiz-adv-x="426" 
d="M136 1726h195v-1723h-195v1723zM-94 1833l202 198h249l203 -198h-177l-151 102l-150 -102h-176z" />
    <glyph glyph-name="idieresis" unicode="&#xef;" horiz-adv-x="426" 
d="M135 1726h195v-1723h-195v1723zM-53 2002h152v-150h-152v150zM365 2002h153v-150h-153v150z" />
    <glyph glyph-name="eth" unicode="&#xf0;" horiz-adv-x="995" 
d="M306 1422l-80 94l228 191q-131 80 -210 110l43 139q157 -46 295 -143l167 141l79 -94l-156 -130q203 -270 203 -673v-676q0 -384 -377 -384q-378 0 -378 384v386q0 362 319 362q93 0 241 -118q0 385 -141 608zM315 381q0 -192 183 -192q182 0 182 192v386q0 186 -153 193
q-17 1 -34 1q-66 0 -101 -16q-77 -33 -77 -178v-386z" />
    <glyph glyph-name="ntilde" unicode="&#xf1;" horiz-adv-x="1015" 
d="M130 1729h205l377 -1406v1402l173 3v-1731h-205l-366 1376v-1376h-184v1732zM280 1810l-87 47l23 46q61 124 153 129h6q61 0 163 -63q61 -39 104 -39q45 0 71 39l26 42l83 -55l-27 -44q-58 -93 -139 -97h-6q-60 0 -161 64q-73 46 -95 49h-7q-48 0 -85 -73z" />
    <glyph glyph-name="ograve" unicode="&#xf2;" 
d="M865 301q0 -337 -378 -338q-377 0 -377 338v1116q0 337 377 337q378 0 378 -337v-1116zM670 1417q0 168 -182 169h-2q-181 0 -181 -169v-1116q0 -169 182 -169q183 0 183 169v1116zM219 2031h186l217 -199h-141l-262 168v31z" />
    <glyph glyph-name="oacute" unicode="&#xf3;" 
d="M865 301q0 -337 -378 -338q-377 0 -377 338v1116q0 337 377 337q378 0 378 -337v-1116zM670 1417q0 168 -182 169h-2q-181 0 -181 -169v-1116q0 -169 182 -169q183 0 183 169v1116zM756 2000l-262 -168h-141l217 199h186v-31z" />
    <glyph glyph-name="ocircumflex" unicode="&#xf4;" 
d="M865 301q0 -337 -378 -338q-377 0 -377 338v1116q0 337 377 337q378 0 378 -337v-1116zM670 1417q0 168 -182 169h-2q-181 0 -181 -169v-1116q0 -169 182 -169q183 0 183 169v1116zM161 1833l202 198h249l203 -198h-177l-151 102l-150 -102h-176z" />
    <glyph glyph-name="otilde" unicode="&#xf5;" 
d="M865 301q0 -337 -378 -338q-377 0 -377 338v1116q0 337 377 337q378 0 378 -337v-1116zM670 1417q0 168 -182 169h-2q-181 0 -181 -169v-1116q0 -169 182 -169q183 0 183 169v1116zM260 1810l-87 47l23 46q61 124 153 129h6q61 0 163 -63q61 -39 104 -39q45 0 71 39
l26 42l83 -55l-27 -44q-58 -93 -139 -97h-6q-60 0 -161 64q-73 46 -95 49h-7q-48 0 -85 -73z" />
    <glyph glyph-name="odieresis" unicode="&#xf6;" 
d="M865 301q0 -337 -378 -338q-377 0 -377 338v1116q0 337 377 337q378 0 378 -337v-1116zM670 1417q0 168 -182 169h-2q-181 0 -181 -169v-1116q0 -169 182 -169q183 0 183 169v1116zM202 2002h152v-150h-152v150zM620 2002h153v-150h-153v150z" />
    <glyph glyph-name="divide" unicode="&#xf7;" horiz-adv-x="987" 
d="M867 1054v-142h-747v142h747zM374 1634h239v-239h-239v239zM374 573h239v-240h-239v240z" />
    <glyph glyph-name="oslash" unicode="&#xf8;" 
d="M548 1580q-27 6 -60 6h-2q-181 0 -181 -169v-1053zM405 143q35 -11 82 -11q183 0 183 169v1116q0 21 -3 40zM717 1707q148 -79 148 -290v-1116q0 -337 -378 -338q-63 0 -116 10l-18 -90h-144l28 140q-127 82 -127 278v1116q0 337 377 337q50 0 94 -6l21 104h144z" />
    <glyph glyph-name="ugrave" unicode="&#xf9;" horiz-adv-x="995" 
d="M875 302q0 -338 -378 -339q-377 0 -377 339v1424h195v-1424q0 -170 182 -170q183 0 183 170v1424h195v-1424zM229 2031h186l217 -199h-141l-262 168v31z" />
    <glyph glyph-name="uacute" unicode="&#xfa;" horiz-adv-x="995" 
d="M875 302q0 -338 -378 -339q-377 0 -377 339v1424h195v-1424q0 -170 182 -170q183 0 183 170v1424h195v-1424zM766 2000l-262 -168h-141l217 199h186v-31z" />
    <glyph glyph-name="ucircumflex" unicode="&#xfb;" horiz-adv-x="995" 
d="M875 302q0 -338 -378 -339q-377 0 -377 339v1424h195v-1424q0 -170 182 -170q183 0 183 170v1424h195v-1424zM171 1833l202 198h249l203 -198h-177l-151 102l-150 -102h-176z" />
    <glyph glyph-name="udieresis" unicode="&#xfc;" horiz-adv-x="995" 
d="M875 302q0 -338 -378 -339q-377 0 -377 339v1424h195v-1424q0 -170 182 -170q183 0 183 170v1424h195v-1424zM212 2002h152v-150h-152v150zM630 2002h153v-150h-153v150z" />
    <glyph glyph-name="yacute" unicode="&#xfd;" horiz-adv-x="982" 
d="M245 1729l245 -854l245 854h207l-354 -1003v-729h-195v729l-353 1003h205zM760 2000l-262 -168h-141l217 199h186v-31z" />
    <glyph glyph-name="thorn" unicode="&#xfe;" horiz-adv-x="950" 
d="M325 1629h149q5 0 17 -1h23q344 0 344 -383v-312q0 -282 -249 -364q-62 -20 -184 -20h-100v-889h-195v2315h195v-346zM325 1438v-699h119q74 0 106 13q113 48 113 181v312q0 193 -181 193h-157z" />
    <glyph glyph-name="ydieresis" unicode="&#xff;" horiz-adv-x="982" 
d="M245 1729l245 -854l245 854h207l-354 -1003v-729h-195v729l-353 1003h205zM206 2002h152v-150h-152v150zM624 2002h153v-150h-153v150z" />
    <glyph glyph-name="dotlessi" unicode="&#x131;" horiz-adv-x="426" 
d="M135 1726h195v-1723h-195v1723z" />
    <glyph glyph-name="circumflex" unicode="&#x2c6;" horiz-adv-x="985" 
d="M166 1833l202 198h249l203 -198h-177l-151 102l-150 -102h-176z" />
    <glyph glyph-name="caron" unicode="&#x2c7;" horiz-adv-x="985" 
d="M342 2031l150 -102l151 102h177l-203 -198h-249l-202 198h176z" />
    <glyph glyph-name="uni02C9" unicode="&#x2c9;" horiz-adv-x="860" 
d="M130 2009h600v-177h-600v177z" />
    <glyph glyph-name="breve" unicode="&#x2d8;" horiz-adv-x="958" 
d="M828 2029q-100 -206 -356 -206h-8q-258 5 -334 206h153q32 -112 198 -112h1q167 0 198 112h148z" />
    <glyph glyph-name="dotaccent" unicode="&#x2d9;" horiz-adv-x="450" 
d="M130 2026h190v-188h-190v188z" />
    <glyph glyph-name="ring" unicode="&#x2da;" horiz-adv-x="609" 
d="M479 1861q0 -175 -175 -175q-174 0 -174 175q0 174 174 174q175 0 175 -174zM304 1975q-114 0 -114 -114q0 -115 114 -115q115 0 115 115q0 114 -115 114z" />
    <glyph glyph-name="tilde" unicode="&#x2dc;" horiz-adv-x="889" 
d="M217 1810l-87 47l23 46q61 124 153 129h6q61 0 163 -63q61 -39 104 -39q45 0 71 39l26 42l83 -55l-27 -44q-58 -93 -139 -97h-6q-60 0 -161 64q-73 46 -95 49h-7q-48 0 -85 -73z" />
    <glyph glyph-name="endash" unicode="&#x2013;" horiz-adv-x="1128" 
d="M50 887v141h1016v-141h-1016z" />
    <glyph glyph-name="emdash" unicode="&#x2014;" horiz-adv-x="2056" 
d="M50 887v141h1971v-141h-1971z" />
    <glyph glyph-name="quoteleft" unicode="&#x2018;" horiz-adv-x="472" 
d="M395 1344h-265v245l100 341h93l-61 -346h133v-240z" />
    <glyph glyph-name="quoteright" unicode="&#x2019;" horiz-adv-x="525" 
d="M130 1930h265v-245l-99 -341h-94l62 346h-134v240z" />
    <glyph glyph-name="quotesinglbase" unicode="&#x201a;" horiz-adv-x="472" 
d="M120 292h266v-244l-100 -342h-93l62 346h-135v240z" />
    <glyph glyph-name="quotedblleft" unicode="&#x201c;" horiz-adv-x="1062" 
d="M395 1344h-265v245l100 341h93l-61 -346h133v-240zM885 1344h-265v245l100 341h93l-61 -346h133v-240z" />
    <glyph glyph-name="quotedblright" unicode="&#x201d;" horiz-adv-x="1115" 
d="M130 1930h265v-245l-99 -341h-94l62 346h-134v240zM620 1930h265v-245l-99 -341h-94l62 346h-134v240z" />
    <glyph glyph-name="quotedblbase" unicode="&#x201e;" horiz-adv-x="1115" 
d="M130 293h265v-245l-99 -341h-94l62 346h-134v240zM620 293h265v-245l-99 -341h-94l62 346h-134v240z" />
    <glyph glyph-name="dagger" unicode="&#x2020;" horiz-adv-x="1418" 
d="M735 1418l490 65q11 2 20 2q43 0 43 -97q0 -99 -52 -99q-8 0 -16 2l-479 68q37 -284 37 -597v-170q0 -318 27 -532q2 -11 2 -19q0 -43 -95 -44q-101 0 -101 53q0 7 2 14q30 205 30 501q0 54 -1 111q-1 44 -1 89q0 304 44 589l-492 -65q-10 -2 -19 -2q-43 0 -44 97
q0 99 51 99q9 0 16 -2l481 -71l-66 493q-3 11 -3 18q0 43 97 43q99 0 99 -51q0 -9 -2 -16z" />
    <glyph glyph-name="daggerdbl" unicode="&#x2021;" horiz-adv-x="1418" 
d="M803 1897l-63 -485l484 71q11 2 20 2q43 0 44 -97q0 -99 -52 -99q-8 0 -16 2l-480 68l29 -214q35 -28 35 -49q0 -5 -1 -11q-6 -47 -6 -99q0 -56 7 -119q2 -6 2 -10q0 -19 -42 -45l-31 -204l491 64q11 2 20 2q43 0 44 -96q0 -100 -54 -100q-6 0 -14 2l-480 71l64 -491
q2 -11 2 -19q0 -43 -96 -44q-100 0 -100 53q0 7 2 14l71 479l-493 -64q-11 -3 -18 -3q-42 0 -42 97q0 99 51 99q8 0 15 -2l481 -68l-29 214q-37 28 -37 50q0 5 1 11q8 46 8 98q0 56 -9 119q-2 6 -2 10q0 19 43 45l32 205l-492 -65q-10 -2 -19 -2q-43 0 -43 97q0 99 51 99
q8 0 15 -2l481 -71l-66 491q-2 12 -2 19q0 44 96 44q100 0 100 -53q0 -7 -2 -14z" />
    <glyph glyph-name="bullet" unicode="&#x2022;" horiz-adv-x="924" 
d="M698 1218q96 -96 96 -235q0 -138 -96 -236q-98 -96 -236 -96t-236 96q-96 98 -96 236q0 139 96 235q98 98 236 98t236 -98z" />
    <glyph glyph-name="ellipsis" unicode="&#x2026;" horiz-adv-x="2063" 
d="M120 258h240v-239h-240v239zM803 258h240v-239h-240v239zM1486 258h240v-239h-240v239z" />
    <glyph glyph-name="guilsinglleft" unicode="&#x2039;" horiz-adv-x="718" 
d="M588 1213l-265 -224l265 -218v-195l-458 426l458 418v-207z" />
    <glyph glyph-name="guilsinglright" unicode="&#x203a;" horiz-adv-x="718" 
d="M130 1420l458 -418l-458 -426v195l266 218l-266 224v207z" />
    <glyph glyph-name="fraction" unicode="&#x2044;" horiz-adv-x="244" 
d="M517 1966l-726 -1969h-74l725 1969h75z" />
    <glyph glyph-name="fraction" unicode="&#x2215;" horiz-adv-x="244" 
d="M517 1966l-726 -1969h-74l725 1969h75z" />
    <glyph glyph-name="franc" unicode="&#x20a3;" horiz-adv-x="908" 
d="M175 522v1443h673v-190h-478v-698h410v-192h-410v-363h197v-118h-197v-407h-195v407h-125v118h125z" />
    <glyph glyph-name="lira" unicode="&#x20a4;" horiz-adv-x="1078" 
d="M263 1196v418q0 385 377 385q378 0 378 -385v-225h-195v225q0 193 -183 193h-2q-180 0 -180 -193v-418h351v-63h-351v-272h351v-63h-351v-271q0 -172 -109 -341h586v-191h-875v191h20q183 0 183 194v418h-203v63h203v272h-203v63h203z" />
    <glyph glyph-name="peseta" unicode="&#x20a7;" horiz-adv-x="2189" 
d="M295 1776v-699h113q67 0 98 13q104 47 104 180v312q0 194 -168 194h-147zM776 1565v-295q0 -285 -224 -365q-52 -19 -161 -19h-96v-889h-165v1970l340 -1q229 0 296 -246h753v-82q173 111 336 111q378 0 378 -332v-193h-195v193q0 176 -181 177q-184 0 -184 -177v-164
q0 -152 304 -343q256 -161 256 -379v-231q0 -332 -376 -332q-379 0 -379 332v195h195v-195q0 -176 184 -176q181 0 181 176v208q0 163 -304 354q-256 162 -256 383v172q0 47 16 148h-255v-1568h-195v1568h-268z" />
    <glyph glyph-name="Euro" unicode="&#x20ac;" horiz-adv-x="1044" 
d="M179 1180v435q0 384 377 384q378 0 378 -384v-226h-195v226q0 192 -182 192h-2q-181 0 -181 -192v-435h404v-62h-404v-274h404v-63h-404v-434q0 -192 182 -192q183 0 183 192v227h195v-227q0 -383 -378 -383q-377 0 -377 383v434h-149v63h149v274h-149v62h149z" />
    <glyph glyph-name="uni2116" unicode="&#x2116;" horiz-adv-x="1884" 
d="M130 1965h205l377 -1598v1594l173 3v-1967h-205l-366 1563v-1563h-184v1968zM1675.3 726.57q0 -202.191 -249.47 -202.792q-248.811 0 -248.811 202.792v669.573q0 202.191 248.811 202.191q249.47 0 249.47 -202.191v-669.573zM1546.6 1396.14
q0 100.796 -120.114 101.396h-1.32031q-119.455 0 -119.455 -101.396v-669.573q0 -101.396 120.115 -101.396q120.774 0 120.774 101.396v669.573zM1136 649v119h493v-119h-493z" />
    <glyph glyph-name="trademark" unicode="&#x2122;" horiz-adv-x="1057" 
d="M374.41 1163.27v-76.0049h-126.004v-711.243h-87.3018v711.243h-126.453v76.0049h339.759zM490.063 528.832l175.055 634.439h92.252v-787.248h-81.9014v636.438l-157.055 -636.438h-53.5518l-160.654 631.238v-631.238h-83.7021v787.248h92.7031z" />
    <glyph glyph-name="partialdiff" unicode="&#x2202;" horiz-adv-x="995" 
d="M680 1011q0 638 -437 806l44 139q588 -172 588 -899v-676q0 -384 -378 -384q-377 0 -377 384v386q0 362 318 362q94 0 242 -118zM315 381q0 -192 183 -192q182 0 182 192v386q0 186 -155 193q-16 1 -33 1q-65 0 -100 -16q-77 -33 -77 -178v-386z" />
    <glyph glyph-name="minus" unicode="&#x2212;" horiz-adv-x="987" 
d="M867 1054v-142h-747v142h747z" />
    <glyph glyph-name="approxequal" unicode="&#x2248;" horiz-adv-x="1145" 
d="M190 954l-90 57l29 45q89 139 201 139h10q75 -5 206 -102q85 -64 149 -64q59 0 95 44l32 42l83 -66l-32 -42q-79 -101 -176 -101h-10q-76 5 -204 101q-94 71 -123 76q-9 2 -21 2q-65 0 -120 -87zM190 583l-90 57l29 45q89 139 201 139h10q75 -5 206 -102q85 -64 149 -64
q59 0 95 44l32 42l83 -66l-32 -42q-79 -101 -176 -101h-10q-76 5 -204 101q-94 71 -123 76q-9 2 -21 2q-65 0 -120 -87z" />
    <glyph glyph-name="lessequal" unicode="&#x2264;" horiz-adv-x="1089" 
d="M120 1055l749 420v-170l-661 -369l661 -360v-170l-749 404v245zM867 188v-142h-747v142h747z" />
    <glyph glyph-name="greaterequal" unicode="&#x2265;" horiz-adv-x="1089" 
d="M869 810l-749 -404v170l655 360l-655 369v170l749 -420v-245zM867 188v-142h-747v142h747z" />
    </font>
</defs>
</svg>
